<?xml version="1.0" standalone="no"?><!DOCTYPE svg PUBLIC "-//W3C//DTD SVG 1.1//EN" "http://www.w3.org/Graphics/SVG/1.1/DTD/svg11.dtd"><svg t="1678302929527" class="icon" viewBox="0 0 1024 1024" version="1.1" xmlns="http://www.w3.org/2000/svg" p-id="26445" xmlns:xlink="http://www.w3.org/1999/xlink" width="200" height="200"><path d="M596 927.6l-21.2-36.6H217.2c-30.8 0-55.8-25-55.8-55.8V179.4c0-30.8 25-55.8 55.8-55.8h392.6v146.8c0 16.6 13.4 30 30 30h146.6V492h60V270.2v-0.4c0-0.8 0-1.4-0.2-2.2v-0.8c0-0.8-0.2-1.6-0.4-2.6 0-0.2-0.2-0.6-0.2-0.8-0.2-0.6-0.2-1.2-0.4-1.8-0.2-0.4-0.2-0.8-0.4-1-0.2-0.6-0.4-1-0.6-1.4-0.2-0.4-0.2-0.6-0.4-1-0.4-0.8-0.6-1.4-1-2.2-0.2-0.2-0.2-0.4-0.4-0.6-0.4-0.6-0.6-1-1-1.6-0.2-0.2-0.4-0.6-0.6-0.8-0.4-0.4-0.8-1-1-1.4l-0.6-0.6c-0.6-0.6-1.2-1.2-1.8-2L662.4 74c-5.6-6.4-13.6-10.6-22.8-10.6H217.2c-63.8 0-115.8 52-115.8 115.8v655.8c0 63.8 52 115.8 115.8 115.8h399c-8-6.2-14.8-14-20.2-23.2z m73.8-761.4l74.2 74.2h-74.2V166.2z m148.6 428.2c11 0 21.2 5.8 26.8 15.4l60.6 105c5.6 9.6 5.6 21.4 0 31l-60.6 105c-5.6 9.6-15.8 15.4-26.8 15.4h-121.2c-11 0-21.2-5.8-26.8-15.4l-60.6-105c-5.6-9.6-5.6-21.4 0-31l60.6-105c5.6-9.6 15.8-15.4 26.8-15.4h121.2m0-60h-121.2c-32.4 0-62.6 17.4-78.8 45.4l-60.6 105c-16.2 28-16.2 62.8 0 91l60.6 105c16.2 28 46.4 45.4 78.8 45.4h121.2c32.4 0 62.6-17.4 78.8-45.4l60.6-105c16.2-28 16.2-62.8 0-91L897 580c-16-28-46.2-45.6-78.6-45.6z m-60.6 278.6c-45.6 0-82.6-37-82.6-82.6s37-82.6 82.6-82.6 82.6 37 82.6 82.6-37.2 82.6-82.6 82.6z m0-105c-12.4 0-22.6 10.2-22.6 22.6s10.2 22.6 22.6 22.6 22.6-10.2 22.6-22.6-10.2-22.6-22.6-22.6zM424 308.4h-173.2c-16.6 0-30-13.4-30-30s13.4-30 30-30H424c16.6 0 30 13.4 30 30s-13.4 30-30 30z m0 321.8h-173.2c-16.6 0-30-13.4-30-30s13.4-30 30-30H424c16.6 0 30 13.4 30 30s-13.4 30-30 30z m239-161h-412c-16.6 0-30-13.4-30-30s13.4-30 30-30h412c16.6 0 30 13.4 30 30s-13.4 30-30 30z" p-id="26446"></path></svg>